# xmcd CD database file
#
# Track frame offsets:
#	150
#	32333
#	71944
#	119091
#	178462
#	215864
#	265879
#
# Disc length: 4098 seconds
#
# Revision: 0
# Processed by: cddbd v1.5.1PL2 Copyright (c) Steve Scherf et al.
# Submitted via: Feurio! 1.67 - http://www.feurio.com
#
DISCID=75100007
DTITLE=Johnny Winter - Parker's Place 1985
DYEAR=1900
DGENRE=Blues-Rock
TTITLE0=Intro
TTITLE1=Divin' Duck
TTITLE2=Going Down To The Delta
TTITLE3=Rolling and Tumbling - Walking Blues
TTITLE4=Come On Into My Kitchen
TTITLE5=Roll Over Beethoven
TTITLE6=Peter Gun
EXTD=
EXTT0=
EXTT1=
EXTT2=
EXTT3=
EXTT4=
EXTT5=
EXTT6=
PLAYORDER=
